<?xml version="1.0" encoding="UTF-8"?>
<svg id="Laag_3" data-name="Laag 3" xmlns="http://www.w3.org/2000/svg" xmlns:xlink="http://www.w3.org/1999/xlink" viewBox="0 0 1080 540">
  <defs>
    <style>
      .cls-1 {
        fill: none;
      }

      .cls-1, .cls-2, .cls-3, .cls-4, .cls-5, .cls-6, .cls-7, .cls-8, .cls-9, .cls-10, .cls-11, .cls-12, .cls-13, .cls-14, .cls-15, .cls-16, .cls-17, .cls-18, .cls-19, .cls-20, .cls-21, .cls-22, .cls-23 {
        stroke-width: 0px;
      }

      .cls-24, .cls-20 {
        fill: #f6c799;
      }

      .cls-25, .cls-8 {
        fill: #985184;
      }

      .cls-26, .cls-7 {
        fill: #666;
      }

      .cls-27, .cls-5 {
        fill: #494949;
      }

      .cls-28 {
        clip-path: url(#clippath-1);
      }

      .cls-29 {
        clip-path: url(#clippath-4);
      }

      .cls-30 {
        clip-path: url(#clippath-3);
      }

      .cls-31 {
        clip-path: url(#clippath-5);
      }

      .cls-2 {
        fill: #444;
        opacity: .25;
      }

      .cls-3 {
        fill: #efb784;
      }

      .cls-3, .cls-32 {
        opacity: .5;
      }

      .cls-4 {
        fill: #fa4d4f;
      }

      .cls-6 {
        fill: #87c62e;
      }

      .cls-9 {
        fill: #00a1f3;
      }

      .cls-10 {
        fill: #86c62e;
      }

      .cls-11 {
        fill: #fdf9fa;
      }

      .cls-12 {
        fill: #fdf516;
      }

      .cls-13 {
        fill: #9256b7;
      }

      .cls-14 {
        fill: #ecdee8;
      }

      .cls-15 {
        fill: #fff;
      }

      .cls-16 {
        fill: #efefef;
      }

      .cls-17 {
        fill: #fbb945;
      }

      .cls-18 {
        fill: #fbf4fa;
      }

      .cls-19 {
        fill: #ed3a42;
      }

      .cls-21 {
        fill: #f55;
      }

      .cls-22 {
        fill: #00a3f3;
      }

      .cls-23 {
        fill: #006daa;
      }
    </style>
    <clipPath id="clippath-1">
      <rect class="cls-1" y="0" width="1080" height="540"/>
    </clipPath>
    <clipPath id="clippath-3">
      <path class="cls-20" d="M900.41,464.65c-6.17,13.24-.43,28.98,12.81,35.14,13.24,6.17,28.98.43,35.14-12.81,1.03-2.21.08-4.83-2.13-5.86-1.04-.48-2.15-.53-3.16-.21-1,.3-2.09.24-3.12-.24-2.21-1.03-3.16-3.65-2.13-5.86l2.19-4.7c3.42-7.35.24-16.1-7.12-19.52-11.78-5.48-26.31.81-32.48,14.05ZM917.56,490.47c-1.03,2.21-3.65,3.16-5.86,2.13s-3.16-3.65-2.13-5.86,3.65-3.16,5.86-2.13c2.21,1.03,3.16,3.65,2.13,5.86ZM910.63,477.52c-1.03,2.21-3.65,3.16-5.86,2.13-2.21-1.03-3.16-3.65-2.13-5.86s3.65-3.16,5.86-2.13,3.16,3.65,2.13,5.86ZM916.83,464.2c-1.03,2.21-3.65,3.16-5.86,2.13-2.21-1.03-3.16-3.65-2.13-5.86s3.65-3.16,5.86-2.13c2.21,1.03,3.16,3.65,2.13,5.86ZM931.21,461.17c-1.03,2.21-3.65,3.16-5.86,2.13s-3.16-3.65-2.13-5.86,3.65-3.16,5.86-2.13,3.16,3.65,2.13,5.86ZM931.23,494.88c-1.03,2.21-3.65,3.16-5.86,2.13-2.21-1.03-3.16-3.65-2.13-5.86s3.65-3.16,5.86-2.13c2.21,1.03,3.16,3.65,2.13,5.86Z"/>
    </clipPath>
    <clipPath id="clippath-4">
      <path class="cls-7" d="M958.3,443.9c-7.94,4.52-26.22,23.6-29.6,27.16-.3.32-.29.82.02,1.13l1.2,1.2,1.2,1.2c.31.31.81.32,1.13.02,3.56-3.37,22.64-21.66,27.16-29.6.41-.72-.39-1.51-1.1-1.1Z"/>
    </clipPath>
    <clipPath id="clippath-5">
      <path class="cls-5" d="M932.32,474.67c-.55-4.69-6.88-5.92-9.09-1.75-.43.81-.76,1.81-.96,3.06-.36,2.25-1.49,3.81-2.64,4.86-.8.73-.3,2.06.78,2.07,4.88.07,12.78-.93,11.91-8.24Z"/>
    </clipPath>
  </defs>
  <g>
    <g>
      <rect class="cls-11" y="0" width="1080" height="540"/>
      <g class="cls-28">
        <path class="cls-18" d="M817.96-111.85c-20.53-34.87-57.98-56.28-98.45-56.28h-359.03c-40.47,0-77.91,21.41-98.45,56.28L82.66,192.82c-28.05,47.63-28.05,106.73,0,154.37l179.38,304.67c20.53,34.87,57.98,56.28,98.45,56.28h359.03c40.47,0,77.91-21.41,98.45-56.28l179.38-304.67c28.05-47.63,28.05-106.73,0-154.37l-179.38-304.67Z"/>
        <g class="cls-32">
          <path class="cls-14" d="M771.09-47.46c-17.07-28.99-48.2-46.79-81.85-46.79h-298.49c-33.64,0-64.78,17.8-81.85,46.79l-149.14,253.29c-23.32,39.6-23.32,88.74,0,128.34l149.14,253.29c17.07,28.99,48.2,46.79,81.85,46.79h298.49c33.64,0,64.78-17.8,81.85-46.79l149.14-253.29c23.32-39.6,23.32-88.74,0-128.34l-149.14-253.29Z"/>
        </g>
        <path class="cls-14" d="M724.22,16.92c-13.61-23.11-38.43-37.3-65.25-37.3h-237.95c-26.82,0-51.64,14.19-65.25,37.3l-118.89,201.92c-18.59,31.57-18.59,70.74,0,102.31l118.89,201.92c13.61,23.11,38.43,37.3,65.25,37.3h237.95c26.82,0,51.64-14.19,65.25-37.3l118.89-201.92c18.59-31.57,18.59-70.74,0-102.31l-118.89-201.92Z"/>
      </g>
    </g>
    <path class="cls-15" d="M677.35,81.31c-10.15-17.23-28.65-27.81-48.65-27.81h-177.41c-20,0-38.5,10.58-48.65,27.81l-88.64,150.55c-13.86,23.54-13.86,52.74,0,76.28l88.64,150.55c10.15,17.23,28.65,27.81,48.65,27.81h177.41c20,0,38.5-10.58,48.65-27.81l88.64-150.55c13.86-23.54,13.86-52.74,0-76.28l-88.64-150.55Z"/>
  </g>
  <g>
    <path class="cls-8" d="M359.51,72.73v-28.85h6.62v4.31h.12c2.25-3.01,5.44-4.73,8.93-4.73h.83v7.39c-.77-.06-1.54-.12-2.01-.12-5.02,0-7.86,3.61-7.86,8.33v13.65h-6.62Z"/>
    <path class="cls-8" d="M352.98,57.95c0,1.06-.12,2.07-.18,2.54h-21.04c.83,4.2,3.96,6.68,8.45,6.68,3.43,0,5.79-1.54,7.27-3.37l4.61,3.96c-2.42,3.13-6.03,5.44-12.24,5.44-8.75,0-14.95-5.85-14.95-14.9s6.03-14.84,14.48-14.84,13.6,6.09,13.6,14.48ZM339.33,49.44c-3.67,0-6.5,2.07-7.45,5.85h14.42c-.83-3.49-3.19-5.85-6.97-5.85Z"/>
    <path class="cls-8" d="M302.5,73.2c-7.98,0-14.01-5.85-14.01-14.78s6.03-14.95,13.95-14.95c3.78,0,7.03,1.36,9.22,3.96h.06v-18.21h6.56v43.5h-6.32v-3.9h-.06c-2.13,2.78-5.26,4.37-9.4,4.37ZM303.51,67.17c4.73,0,8.45-3.49,8.45-8.69s-3.43-9.04-8.39-9.04c-4.61,0-8.33,3.49-8.33,9.04,0,5.08,3.43,8.69,8.28,8.69Z"/>
    <path class="cls-8" d="M274.85,72.73V29.23h6.62v43.5h-6.62Z"/>
    <path class="cls-8" d="M262.37,39.63c-2.48,0-4.43-2.01-4.43-4.43s1.95-4.37,4.43-4.37,4.49,2.01,4.49,4.37-2.01,4.43-4.49,4.43ZM259.06,72.73v-28.85h6.62v28.85h-6.62Z"/>
    <path class="cls-8" d="M234.99,73.2c-6.38,0-10.82-3.19-10.82-11.76v-17.56h6.62v15.78c0,5.73,1.77,7.51,5.73,7.51s7.39-3.25,7.39-9.46v-13.83h6.62v28.85h-6.62v-3.61l-.12-.06c-2.31,2.78-5.5,4.14-8.81,4.14Z"/>
    <path class="cls-8" d="M187.57,72.72V30.76h14.6c8.63,0,13.65,3.37,13.65,10.23,0,3.9-1.89,7.8-6.21,9.52v.06c4.91,1.18,8.33,4.85,8.33,10.64,0,6.68-4.49,11.53-13.77,11.53h-16.61ZM194.72,48.13h6.92c4.02,0,6.92-1.6,6.92-5.56,0-3.31-2.25-5.5-7.15-5.5l-6.68.06v10.99ZM194.72,66.34h8.57c4.43,0,7.21-1.95,7.21-5.91,0-3.72-2.78-6.15-8.34-6.15h-7.45v12.06Z"/>
    <path class="cls-8" d="M118.47,72.73v-28.85h6.62v3.96h.06c2.36-2.84,5.67-4.37,8.98-4.37,3.9,0,6.92,1.54,8.63,4.79h.12c2.42-3.13,6.09-4.79,10.34-4.79,6.32,0,10.11,3.96,10.11,12.59v16.67h-6.62v-15.01c0-5.2-1.71-8.28-5.62-8.28s-6.74,3.25-6.74,8.93v14.36h-6.62v-15.01c0-5.2-1.83-8.28-5.73-8.28s-6.92,3.25-6.92,8.93v14.36h-6.62Z"/>
    <path class="cls-8" d="M96.75,72.73v-28.85h6.62v4.31h.12c2.25-3.01,5.44-4.73,8.93-4.73h.83v7.39c-.77-.06-1.54-.12-2.01-.12-5.03,0-7.86,3.61-7.86,8.33v13.65h-6.62Z"/>
    <path class="cls-8" d="M75.05,73.2c-9.1,0-15.13-6.38-15.13-14.84s6.03-14.9,15.13-14.9,15.13,6.03,15.13,14.9-6.27,14.84-15.13,14.84ZM75.05,67.17c4.67,0,8.39-3.61,8.39-8.81s-3.66-8.93-8.39-8.93c-5.02,0-8.39,3.9-8.39,8.93s3.43,8.81,8.39,8.81Z"/>
    <path class="cls-8" d="M30,72.72V30.76h27.43v6.38h-20.27v12.53h17.02v6.44h-17.02v16.61h-7.15Z"/>
  </g>
  <g>
    <path class="cls-1" d="M497.62,319.49c0-7.34,2.87-13.98,7.54-18.91-4.67,4.93-7.57,11.56-7.57,18.88v21.2c0,.23.1.39.16.55-.06-.16-.13-.35-.13-.55v-21.16Z"/>
    <path class="cls-8" d="M542.85,345.42h-40.46c-1.39,0-2.58-.64-3.41-1.61-.26-.29-.52-.55-.68-.9-.26-.52-.45-1.06-.52-1.64v-.03c-.06-.16-.16-.35-.16-.55v-21.2c0-7.31,2.9-13.95,7.57-18.88,5.02-5.28,12.08-8.6,19.97-8.6h49.9c3.61-7.7,7.02-15.88,10.21-24.51h-122.92c-3.09,0-5.99-.93-8.37-2.54-2.22-1.48-3.96-3.61-5.12-6.02-.93-1.93-1.48-4.09-1.48-6.38v-19.39h0s.03-.19.06-.29c.16-.97.93-1.71,1.87-1.71h143.63c1.1,0,2.19.13,3.22.35,6.89-28.44,10.79-60.85,9.5-97.44,0-.81,0-1.58-.06-2.38h-155.74c-15.36,0-27.8,12.47-27.8,27.8v216.46c0,6.76,5.6,12.3,12.4,12.3h68.03c6.54-5.25,22.71-19.33,40.39-42.78l-.03-.06ZM447.37,187.56c0-1.32.23-2.58.55-3.77,1.55-5.96,6.64-10.4,12.92-11.05.52-.06,1-.16,1.51-.16h115.61c.29,0,.55.06.77.16.74.29,1.22,1.03,1.22,1.84v19.39c0,4.54-2.06,8.57-5.25,11.31-2.64,2.25-5.99,3.7-9.76,3.7h-115.61c-1.03,0-1.93-.9-1.93-1.93v-19.46l-.03-.03Z"/>
    <path class="cls-1" d="M498.98,343.81c-.26-.29-.52-.55-.68-.9.16.35.45.61.68.9Z"/>
    <path class="cls-1" d="M638.45,397.16c.77-1.32,2-2.16,3.45-2.51-1.48.35-2.71,1.19-3.45,2.51Z"/>
    <path class="cls-1" d="M610.49,439.45s.1-.03.16-.03h-.58c.13,0,.26.06.39.06l.03-.03Z"/>
    <path class="cls-15" d="M462.38,267.47c-3.12,0-5.99-.93-8.37-2.54,2.38,1.61,5.28,2.54,8.37,2.54h122.89-122.89Z"/>
    <path class="cls-15" d="M447.37,233.1h0v19.39c0,2.29.55,4.45,1.48,6.38-.93-1.93-1.48-4.09-1.48-6.41v-19.39.03Z"/>
    <path class="cls-15" d="M449.31,231.11h143.63c1.1,0,2.19.13,3.22.35h0c-1.03-.23-2.13-.35-3.22-.35h-143.6c-.93,0-1.74.74-1.87,1.71.16-.97.93-1.71,1.87-1.71h-.03Z"/>
    <path class="cls-9" d="M575.03,292.02h-49.9c-7.86,0-14.95,3.32-19.94,8.6-4.67,4.93-7.54,11.56-7.54,18.91v21.16c0,.19.06.42.13.55v.03c.06.61.26,1.16.52,1.64.16.35.45.61.68.9.84.97,2.03,1.61,3.45,1.61h68.19l-.68-3.64v-.16l-.06-.16-1.35-7.76-.06-.45v-.16l-.81-4.09c-.68-3.35-.39-6.12-.29-7.31l.06-.23v-.29l.06-.23c.81-5.73,3.64-10.73,7.67-14.3,4.03-3.58,9.41-5.73,15.04-5.73,4.03,0,7.99,1.03,11.47,3.12l22.74,12.88.06.06h.06l8.63,5.06v-30.09h-58.21l.06.06Z"/>
    <path class="cls-9" d="M502.39,345.42c-1.39,0-2.58-.64-3.45-1.61.84.97,2.03,1.61,3.41,1.61h40.46-40.46.03Z"/>
    <path class="cls-9" d="M525.13,292.02h49.9-49.9c-7.86,0-14.95,3.32-19.97,8.6,5.02-5.28,12.08-8.6,19.94-8.6h.03Z"/>
    <path class="cls-9" d="M497.75,341.2v.03c.06.61.26,1.16.52,1.64-.26-.52-.45-1.06-.52-1.64v-.03Z"/>
    <path class="cls-15" d="M462.35,172.58c-.52,0-1,.1-1.51.16.52-.06,1-.16,1.51-.16h0Z"/>
    <path class="cls-15" d="M449.34,208.95h115.67c3.74,0,7.12-1.42,9.76-3.7-2.64,2.25-5.99,3.67-9.73,3.67h-115.74c-1.03,0-1.93-.9-1.93-1.93v-19.46c0-1.32.23-2.58.55-3.77-.32,1.22-.55,2.48-.55,3.77v19.46c0,1.03.9,1.93,1.93,1.93l.03.03Z"/>
    <path class="cls-15" d="M577.99,172.58h0c.29,0,.55.06.81.16-.23-.1-.52-.16-.77-.16h-.03Z"/>
    <path class="cls-8" d="M590.2,318.72c-.74,0-1.45.23-2.09.55.64-.32,1.35-.55,2.13-.55h-.03Z"/>
    <path class="cls-1" d="M448.85,258.87c1.16,2.45,2.9,4.54,5.12,6.02-2.22-1.51-3.96-3.61-5.12-6.02Z"/>
    <path class="cls-1" d="M447.37,233.1h0s.03-.19.06-.29c0,.1-.06.19-.06.29Z"/>
    <path class="cls-1" d="M607.95,246.08v19.39c0,.29-.06.58-.19.84.13-.26.19-.52.19-.84v-19.39c0-7.15-4.96-13.05-11.63-14.59,6.67,1.51,11.63,7.47,11.63,14.59Z"/>
    <path class="cls-15" d="M585.24,267.47h20.71c.81,0,1.48-.48,1.8-1.19.13-.26.19-.55.19-.84v-19.39c0-7.12-4.99-13.05-11.63-14.59-.03,0-.1,0-.13-.03-1.03-.23-2.13-.35-3.22-.35h-143.66c-.93,0-1.71.74-1.87,1.71,0,.1-.06.19-.06.29v19.39c0,2.29.55,4.45,1.48,6.41,1.16,2.45,2.9,4.54,5.12,6.02,2.38,1.61,5.28,2.54,8.37,2.54h122.85l.03.03Z"/>
    <path class="cls-1" d="M460.87,172.74c-6.28.64-11.37,5.09-12.92,11.05,1.55-5.96,6.67-10.4,12.92-11.05Z"/>
    <path class="cls-1" d="M579.99,174.58v19.39c0,4.54-2.06,8.54-5.25,11.31,3.19-2.74,5.25-6.76,5.25-11.31v-19.39c0-.84-.52-1.55-1.22-1.84.71.29,1.22,1.03,1.22,1.87v-.03Z"/>
    <path class="cls-15" d="M447.37,207.01c0,1.03.9,1.93,1.93,1.93h115.7c3.74,0,7.12-1.42,9.73-3.67,3.19-2.74,5.25-6.76,5.25-11.31v-19.39c0-.84-.52-1.55-1.22-1.87-.26-.1-.52-.16-.81-.16h-115.57c-.52,0-1,.1-1.51.16-6.28.64-11.37,5.09-12.92,11.05-.32,1.22-.55,2.48-.55,3.77v19.46l-.03.03Z"/>
    <path class="cls-17" d="M542.85,345.42c-17.68,23.45-33.85,37.56-40.39,42.78h76.02l-1.03-5.6-5.48-29.57-1.39-7.63h-27.73v.03Z"/>
    <path class="cls-17" d="M596.19,231.46s.1,0,.13.03c6.67,1.51,11.63,7.44,11.63,14.59v19.39c0,.29-.06.58-.19.84-.32.71-1,1.19-1.84,1.19h-20.68c-3.19,8.63-6.6,16.85-10.21,24.51h58.21v-147.98c0-6.86-5.54-12.4-12.4-12.4h-15.2c0,.81,0,1.58.06,2.38,1.26,36.59-2.64,68.96-9.5,97.44Z"/>
    <path class="cls-17" d="M596.32,231.49s-.1,0-.13-.03h0s.1,0,.13.03Z"/>
    <path class="cls-17" d="M607.75,266.28c-.32.68-1,1.19-1.8,1.19h-20.71,20.68c.81,0,1.51-.48,1.84-1.19Z"/>
    <polygon class="cls-17" points="633.2 292.02 633.2 291.99 575.03 291.99 575.03 292.02 633.2 292.02"/>
    <path class="cls-23" d="M633.2,292.02v30.09l6.35,3.64,34.37,19.68h.06c15.2,0,27.51-12.27,27.51-27.48v-21.26c0-2.61-2.09-4.7-4.7-4.7h-63.59v.03Z"/>
    <path class="cls-9" d="M586.04,330.48l1.39,7.96,1.32,6.99.81,4.32,5.44,29.67,1.64,8.83,8.66,46.67c.13.68.35,1.29.64,1.8.1.16.23.32.35.48.23.32.48.64.77.9.16.13.35.26.52.39.29.19.58.39.9.52.19.1.42.16.61.23.32.1.68.13,1,.16h.58c.74,0,1.45-.19,2.13-.55.13-.06.23-.16.35-.23.68-.42,1.32-.97,1.8-1.77l23.51-39.68c.77-1.32,2-2.16,3.45-2.51l45.55-9.53.23-.1c2.51-.45,3.99-2.54,4.22-4.8v-.23c.13-1.93-.64-4.09-2.67-5.31l-51.15-29.28-4.86-2.77-2.51-1.45-15.04-8.73-22.9-13.01c-.84-.52-1.67-.74-2.51-.74-.74,0-1.45.23-2.13.55-.19.1-.35.23-.52.32-.45.29-.87.68-1.22,1.1-.13.16-.29.32-.39.52-.42.64-.74,1.39-.84,2.19v.23c-.1.55-.16,1.16,0,1.74l.84,4.45.13.68-.1.03Z"/>
  </g>
  <g>
    <path class="cls-8" d="M30,404.81c0-1.46,1.18-2.64,2.64-2.64h117.88c8.76,0,15.86,7.1,15.86,15.86v27.49c0,1.46-1.18,2.64-2.64,2.64H45.86c-8.76,0-15.86-7.1-15.86-15.86v-27.49Z"/>
    <path class="cls-15" d="M43.14,435.47v-20.64h6.74c4.01,0,6.66,1.51,6.66,5.03,0,2.01-1.05,3.92-3.29,4.71v.06c2.41.49,4.3,2.24,4.3,5.23,0,3.29-2.21,5.61-6.89,5.61h-7.53ZM45.67,423.72h4.24c2.12,0,4.04-.87,4.04-3.37,0-1.98-1.31-3.26-4.33-3.26l-3.95.03v6.6ZM45.67,433.17h4.77c2.7,0,4.48-1.13,4.48-3.52s-1.66-3.72-4.86-3.72h-4.39v7.24ZM67.06,435.64c-3.9,0-6.89-2.85-6.89-7.15s2.88-7.36,6.89-7.36c2.09,0,3.92.99,4.94,2.7l.06-.03v-2.5h2.35v14.16h-2.27v-2.56h-.03c-1.02,1.69-2.76,2.73-5.06,2.73ZM67.41,433.49c2.62,0,4.74-2.01,4.74-5s-1.95-5.2-4.74-5.2-4.86,2.06-4.86,5.2c0,2.85,1.95,5,4.86,5ZM84.66,435.64c-4.13,0-7.06-2.94-7.06-7.24s2.94-7.27,7.15-7.27c2.12,0,4.3.87,5.7,2.53l-1.6,1.42c-.9-1.05-2.3-1.8-3.98-1.8-2.91,0-4.85,2.12-4.85,5.12s1.95,5.09,4.83,5.09c1.69,0,3.17-.73,4.04-1.8l1.63,1.48c-1.19,1.42-3.08,2.47-5.84,2.47ZM93.51,435.47v-21.4h2.35v14.97l.03.03,6.95-7.76h2.85l-5.29,5.84,5.35,8.31h-2.7l-4.27-6.66-2.91,3.14v3.52h-2.35ZM120.27,428.14c0,.38-.06.78-.06.96h-11.05c.32,2.65,2.18,4.39,4.86,4.39,1.89,0,3.23-.81,4.1-1.89l1.66,1.4c-1.22,1.57-2.99,2.65-5.84,2.65-4.19,0-7.15-2.91-7.15-7.24s2.94-7.27,6.98-7.27,6.51,2.97,6.51,7.01ZM113.73,423.29c-2.27,0-4.07,1.48-4.51,3.9h8.69c-.35-2.33-1.86-3.9-4.19-3.9ZM123.57,435.47v-14.16h2.35v2.56h.03c1.1-1.72,2.97-2.73,5.15-2.73,3.05,0,5.09,1.89,5.09,5.93v8.4h-2.35v-7.73c0-3.31-1.42-4.45-3.49-4.45-2.67,0-4.42,1.92-4.42,5.12v7.06h-2.35ZM146.2,435.64c-3.92,0-6.95-2.85-6.95-7.15s2.94-7.36,6.92-7.36c2.15,0,3.98.99,5.06,2.7h.03v-9.77h2.35v21.4h-2.27v-2.62h-.03c-1.02,1.72-2.82,2.79-5.12,2.79ZM146.52,433.49c2.67,0,4.83-2.01,4.83-5s-1.95-5.2-4.8-5.2-4.88,2.06-4.88,5.2c0,2.85,1.98,5,4.86,5Z"/>
    <path class="cls-8" d="M182.24,418.02c0-8.76,7.1-15.86,15.86-15.86h81.93c1.46,0,2.64,1.18,2.64,2.64v27.49c0,8.76-7.1,15.86-15.86,15.86h-81.93c-1.46,0-2.64-1.18-2.64-2.64v-27.49Z"/>
    <path class="cls-15" d="M195.57,435.47v-20.64h7.21c4.83,0,6.83,2.73,6.83,6.4,0,4.36-2.97,6.37-7.27,6.37h-4.24v7.88h-2.53ZM198.1,425.29h4.01c3.43,0,4.88-1.74,4.88-4.13,0-2.65-1.72-4.04-4.48-4.04h-4.42v8.17ZM219.1,435.64c-4.39,0-7.33-3.17-7.33-7.24s2.94-7.27,7.33-7.27,7.3,2.97,7.3,7.27-3.11,7.24-7.3,7.24ZM219.1,433.49c2.7,0,4.88-2.06,4.88-5.09s-2.15-5.12-4.88-5.12c-2.97,0-4.91,2.3-4.91,5.12s1.98,5.09,4.91,5.09ZM229.77,435.47v-14.16h2.35v2.59h.06c1.02-1.72,2.65-2.76,4.59-2.76.2,0,.38,0,.58.03v2.62c-.35-.03-.7-.06-.93-.06-2.7,0-4.3,2.06-4.3,4.91v6.83h-2.35ZM243.85,435.64c-2.5,0-3.66-1.54-3.66-4.39v-7.91h-1.83v-2.04h1.83v-4.83l2.35-.26v5.09h4.68v2.04h-4.68v7.56c0,1.72.38,2.53,1.72,2.53.84,0,1.72-.35,2.41-.73l.61,2.06c-.78.47-1.74.87-3.43.87ZM255.54,435.64c-3.9,0-6.89-2.85-6.89-7.15s2.88-7.36,6.89-7.36c2.09,0,3.92.99,4.94,2.7l.06-.03v-2.5h2.35v14.16h-2.27v-2.56h-.03c-1.02,1.69-2.76,2.73-5.06,2.73ZM255.88,433.49c2.62,0,4.74-2.01,4.74-5s-1.95-5.2-4.74-5.2-4.86,2.06-4.86,5.2c0,2.85,1.95,5,4.86,5ZM267.15,435.47v-21.4h2.35v21.4h-2.35Z"/>
    <path class="cls-8" d="M30,466.65c0-1.46,1.18-2.64,2.64-2.64h109.42c8.76,0,15.86,7.1,15.86,15.86v27.49c0,1.46-1.18,2.64-2.64,2.64H45.86c-8.76,0-15.86-7.1-15.86-15.86v-27.49Z"/>
    <path class="cls-15" d="M48.2,497.31l-6.57-20.64h2.7l5.09,16.54h.06l4.65-16.54h2.76l4.62,16.51h.06l5.12-16.51h2.67l-6.6,20.64h-2.44l-4.77-16.95h-.06l-4.86,16.95h-2.44ZM83.2,489.99c0,.38-.06.78-.06.96h-11.05c.32,2.65,2.18,4.39,4.86,4.39,1.89,0,3.23-.81,4.1-1.89l1.66,1.4c-1.22,1.57-2.99,2.65-5.84,2.65-4.19,0-7.15-2.91-7.15-7.24s2.94-7.27,6.98-7.27,6.51,2.97,6.51,7.01ZM76.66,485.13c-2.27,0-4.07,1.48-4.51,3.9h8.69c-.35-2.33-1.86-3.9-4.19-3.9ZM93.92,497.49c-2.33,0-4.07-1.05-5.12-2.73h-.06v2.56h-2.24v-21.4h2.35v9.71h.03c1.08-1.69,2.88-2.65,5.03-2.65,4.01,0,6.89,3.17,6.89,7.36s-2.99,7.15-6.89,7.15ZM93.6,495.34c2.85,0,4.83-2.15,4.83-5,0-3.14-2.18-5.2-4.86-5.2-2.88,0-4.83,2.3-4.83,5.2s2.15,5,4.86,5ZM108.49,497.49c-2.35,0-4.16-.81-5.52-2.01l1.19-1.8c1.1,1.08,2.35,1.72,4.33,1.72,1.72,0,2.7-.84,2.7-1.92,0-1.25-1.31-1.6-3.37-2.35-2.3-.81-4.24-1.74-4.24-4.33,0-2.18,1.98-3.81,4.65-3.81,1.72,0,3.31.47,4.88,1.74l-1.22,1.86c-1.22-1.13-2.53-1.51-3.75-1.51-1.1,0-2.18.64-2.18,1.72s1.13,1.66,2.67,2.21c2.99,1.16,4.97,1.69,4.94,4.45,0,2.21-1.69,4.04-5.09,4.04ZM118.13,480.57c-.96,0-1.72-.76-1.72-1.69s.76-1.69,1.72-1.69,1.72.76,1.72,1.69-.76,1.69-1.72,1.69ZM116.94,497.31v-14.16h2.35v14.16h-2.35ZM127.73,497.49c-2.5,0-3.66-1.54-3.66-4.39v-7.91h-1.83v-2.04h1.83v-4.83l2.35-.26v5.09h4.68v2.04h-4.68v7.56c0,1.72.38,2.53,1.72,2.53.84,0,1.72-.35,2.41-.73l.61,2.06c-.78.47-1.74.87-3.43.87ZM146.01,489.99c0,.38-.06.78-.06.96h-11.05c.32,2.65,2.18,4.39,4.86,4.39,1.89,0,3.23-.81,4.1-1.89l1.66,1.4c-1.22,1.57-2.99,2.65-5.84,2.65-4.19,0-7.15-2.91-7.15-7.24s2.94-7.27,6.98-7.27,6.51,2.97,6.51,7.01ZM139.47,485.13c-2.27,0-4.07,1.48-4.51,3.9h8.69c-.35-2.33-1.86-3.9-4.19-3.9Z"/>
    <path class="cls-8" d="M173.78,479.87c0-8.76,7.1-15.86,15.86-15.86h148.53c1.46,0,2.64,1.18,2.64,2.64v27.49c0,8.76-7.1,15.86-15.86,15.86h-148.53c-1.46,0-2.64-1.18-2.64-2.64v-27.49Z"/>
    <path class="cls-15" d="M187.17,497.31v-20.64h12.65v2.3h-10.12v6.92h8.29v2.3h-8.29v6.83h10.73v2.3h-13.26ZM203.91,497.31v-14.16h2.35v2.56h.03c1.08-1.72,2.85-2.73,4.74-2.73,2.12,0,3.66,1.08,4.39,3.02h.03c1.08-1.92,2.99-3.02,5.2-3.02,3.14,0,4.88,2.15,4.88,6.19v8.14h-2.35v-7.5c0-3.02-1.08-4.68-3.23-4.68s-3.98,1.98-3.98,5.15v7.04h-2.35v-7.5c0-3.02-1.16-4.68-3.29-4.68-2.33,0-4.07,1.98-4.07,5.15v7.04h-2.35ZM236.9,497.49c-2.33,0-4.07-1.05-5.12-2.73h-.06v2.56h-2.24v-21.4h2.35v9.71h.03c1.08-1.69,2.88-2.65,5.03-2.65,4.01,0,6.89,3.17,6.89,7.36s-2.99,7.15-6.89,7.15ZM236.58,495.34c2.85,0,4.83-2.15,4.83-5,0-3.14-2.18-5.2-4.86-5.2-2.88,0-4.83,2.3-4.83,5.2s2.15,5,4.86,5ZM259.79,489.99c0,.38-.06.78-.06.96h-11.05c.32,2.65,2.18,4.39,4.86,4.39,1.89,0,3.23-.81,4.1-1.89l1.66,1.4c-1.22,1.57-2.99,2.65-5.84,2.65-4.19,0-7.15-2.91-7.15-7.24s2.94-7.27,6.98-7.27,6.51,2.97,6.51,7.01ZM253.25,485.13c-2.27,0-4.07,1.48-4.51,3.9h8.69c-.35-2.33-1.86-3.9-4.19-3.9ZM269.11,497.49c-3.92,0-6.95-2.85-6.95-7.15s2.94-7.36,6.92-7.36c2.15,0,3.98.99,5.06,2.7h.03v-9.77h2.35v21.4h-2.27v-2.62h-.03c-1.02,1.72-2.82,2.79-5.12,2.79ZM269.43,495.34c2.67,0,4.83-2.01,4.83-5s-1.95-5.2-4.8-5.2-4.88,2.06-4.88,5.2c0,2.85,1.98,5,4.86,5ZM286.8,497.49c-3.92,0-6.95-2.85-6.95-7.15s2.94-7.36,6.92-7.36c2.15,0,3.98.99,5.06,2.7h.03v-9.77h2.35v21.4h-2.27v-2.62h-.03c-1.02,1.72-2.82,2.79-5.12,2.79ZM287.12,495.34c2.67,0,4.83-2.01,4.83-5s-1.95-5.2-4.8-5.2-4.88,2.06-4.88,5.2c0,2.85,1.98,5,4.86,5ZM311.05,489.99c0,.38-.06.78-.06.96h-11.05c.32,2.65,2.18,4.39,4.86,4.39,1.89,0,3.23-.81,4.1-1.89l1.66,1.4c-1.22,1.57-2.99,2.65-5.84,2.65-4.19,0-7.15-2.91-7.15-7.24s2.94-7.27,6.98-7.27,6.51,2.97,6.51,7.01ZM304.51,485.13c-2.27,0-4.07,1.48-4.51,3.9h8.69c-.35-2.33-1.86-3.9-4.19-3.9ZM320.38,497.49c-3.92,0-6.95-2.85-6.95-7.15s2.94-7.36,6.92-7.36c2.15,0,3.98.99,5.06,2.7h.03v-9.77h2.35v21.4h-2.27v-2.62h-.03c-1.02,1.72-2.82,2.79-5.12,2.79ZM320.7,495.34c2.67,0,4.83-2.01,4.83-5s-1.95-5.2-4.8-5.2-4.88,2.06-4.88,5.2c0,2.85,1.98,5,4.86,5Z"/>
  </g>
  <path class="cls-8" d="M30.23,344.98v-20.59h7.16c4.23,0,6.7,1.65,6.7,5.02,0,1.91-.93,3.83-3.05,4.67v.03c2.41.58,4.09,2.38,4.09,5.22,0,3.28-2.2,5.66-6.76,5.66h-8.15ZM33.74,332.92h3.39c1.97,0,3.39-.78,3.39-2.73,0-1.62-1.1-2.7-3.51-2.7l-3.28.03v5.39ZM33.74,341.85h4.21c2.17,0,3.54-.96,3.54-2.9,0-1.83-1.36-3.02-4.09-3.02h-3.65v5.92ZM53.65,345.22c-3.13,0-5.31-1.57-5.31-5.77v-8.61h3.25v7.74c0,2.81.87,3.68,2.81,3.68s3.62-1.59,3.62-4.64v-6.79h3.25v14.15h-3.25v-1.77l-.06-.03c-1.13,1.36-2.7,2.03-4.32,2.03ZM67.23,328.74c-1.22,0-2.18-.99-2.18-2.18s.96-2.15,2.18-2.15,2.2.99,2.2,2.15-.99,2.18-2.2,2.18ZM65.6,344.98v-14.15h3.25v14.15h-3.25ZM73.5,344.98v-21.34h3.25v21.34h-3.25ZM87.2,345.22c-3.92,0-6.87-2.87-6.87-7.25s2.96-7.34,6.84-7.34c1.86,0,3.45.67,4.52,1.94h.03v-8.93h3.22v21.34h-3.1v-1.91h-.03c-1.04,1.36-2.58,2.15-4.61,2.15ZM87.7,342.26c2.32,0,4.15-1.71,4.15-4.26s-1.68-4.44-4.12-4.44c-2.26,0-4.09,1.71-4.09,4.44,0,2.49,1.68,4.26,4.06,4.26ZM107.47,344.98v-11.4h-1.57v-2.75h1.57v-2.58c0-3.16,1.51-4.84,4.29-4.84,1.57,0,2.78.49,3.54.99l-.72,2.73c-.93-.44-1.74-.73-2.35-.73-.99,0-1.51.67-1.51,2.2v2.23h3.48v2.75h-3.48v11.4h-3.25ZM123.21,345.22c-4.47,0-7.42-3.13-7.42-7.28s2.96-7.31,7.42-7.31,7.42,2.96,7.42,7.31-3.07,7.28-7.42,7.28ZM123.21,342.26c2.29,0,4.12-1.77,4.12-4.32s-1.8-4.38-4.12-4.38c-2.47,0-4.12,1.91-4.12,4.38s1.68,4.32,4.12,4.32ZM134.02,344.98v-14.15h3.25v2.12h.06c1.1-1.48,2.67-2.32,4.38-2.32h.41v3.63c-.38-.03-.75-.06-.99-.06-2.47,0-3.86,1.77-3.86,4.09v6.7h-3.25ZM144.81,344.98v-14.15h3.25v1.94h.03c1.16-1.39,2.78-2.15,4.41-2.15,1.91,0,3.39.75,4.23,2.35h.06c1.19-1.54,2.99-2.35,5.07-2.35,3.1,0,4.96,1.94,4.96,6.18v8.18h-3.25v-7.37c0-2.55-.84-4.06-2.76-4.06s-3.31,1.59-3.31,4.38v7.05h-3.25v-7.37c0-2.55-.9-4.06-2.81-4.06s-3.39,1.59-3.39,4.38v7.05h-3.25ZM175.36,345.22c-2.29,0-4.23-.75-5.71-2.06l1.62-2.44c1.13,1.1,2.35,1.65,4.09,1.65,1.25,0,1.97-.55,1.97-1.39,0-.72-.93-1.07-2.78-1.71-2.32-.81-4.32-1.86-4.32-4.64,0-2.32,2.09-4,4.99-4,1.8,0,3.42.49,4.99,1.77l-1.62,2.55c-1.13-1.07-2.44-1.51-3.54-1.51-.64,0-1.54.35-1.54,1.22,0,.7.87,1.19,2.23,1.71,3.02,1.19,4.9,1.74,4.9,4.55,0,2.38-1.68,4.29-5.28,4.29ZM197.65,345.16c-3.89,0-6.87-2.84-6.87-7.13s2.87-7.34,6.87-7.34c2.09,0,3.92.99,4.93,2.7l.06-.03v-2.49h2.35v14.12h-2.26v-2.55h-.03c-1.01,1.68-2.76,2.73-5.05,2.73ZM198,343.01c2.61,0,4.73-2,4.73-4.99s-1.94-5.19-4.73-5.19-4.84,2.06-4.84,5.19c0,2.84,1.94,4.99,4.84,4.99ZM209.21,344.98v-14.12h2.35v2.55h.03c1.1-1.71,2.96-2.73,5.13-2.73,3.04,0,5.07,1.89,5.07,5.92v8.38h-2.35v-7.71c0-3.31-1.42-4.44-3.48-4.44-2.67,0-4.41,1.91-4.41,5.1v7.05h-2.35ZM231.92,345.16c-3.92,0-6.93-2.84-6.93-7.13s2.93-7.34,6.9-7.34c2.15,0,3.97.99,5.05,2.7h.03v-9.74h2.35v21.34h-2.26v-2.61h-.03c-1.01,1.71-2.81,2.78-5.1,2.78ZM232.24,343.01c2.67,0,4.81-2,4.81-4.99s-1.94-5.19-4.79-5.19-4.87,2.06-4.87,5.19c0,2.84,1.97,4.99,4.84,4.99ZM31.28,363.28c-.96,0-1.71-.75-1.71-1.68s.75-1.68,1.71-1.68,1.71.75,1.71,1.68-.75,1.68-1.71,1.68ZM30.09,379.98v-14.12h2.35v14.12h-2.35ZM37.02,379.98v-14.12h2.35v2.55h.03c1.1-1.71,2.96-2.73,5.13-2.73,3.05,0,5.07,1.89,5.07,5.92v8.38h-2.35v-7.71c0-3.31-1.42-4.44-3.48-4.44-2.67,0-4.41,1.91-4.41,5.1v7.05h-2.35ZM57.71,380.16c-2.49,0-3.65-1.54-3.65-4.38v-7.89h-1.83v-2.03h1.83v-4.81l2.35-.26v5.08h4.67v2.03h-4.67v7.54c0,1.71.38,2.52,1.71,2.52.84,0,1.71-.35,2.41-.73l.61,2.06c-.78.46-1.74.87-3.42.87ZM76.09,372.68c0,.38-.06.78-.06.96h-11.02c.32,2.64,2.18,4.38,4.84,4.38,1.88,0,3.22-.81,4.09-1.88l1.65,1.39c-1.22,1.57-2.99,2.64-5.83,2.64-4.18,0-7.13-2.9-7.13-7.22s2.93-7.25,6.96-7.25,6.5,2.96,6.5,6.99ZM69.56,367.83c-2.26,0-4.06,1.48-4.49,3.89h8.67c-.35-2.32-1.86-3.89-4.18-3.89ZM85.77,385.9c-2.12,0-4.06-.52-5.74-1.54l.58-2.09c1.62.93,3.05,1.48,5.08,1.48,3.19,0,4.73-1.86,4.73-4.23v-2.26h-.06c-1.04,1.51-2.73,2.47-4.9,2.47-3.86,0-6.84-2.78-6.84-6.99s2.78-7.05,6.76-7.05c2,0,3.83.9,4.96,2.44h.06v-2.26h2.35v13.08c0,4.06-2.03,6.96-6.96,6.96ZM85.74,377.55c2.84,0,4.73-2.12,4.73-4.93s-2.06-4.76-4.7-4.76c-2.87,0-4.78,2.06-4.78,4.81,0,2.99,2.09,4.87,4.76,4.87ZM96.92,379.98v-14.12h2.35v2.58h.06c1.01-1.71,2.64-2.76,4.58-2.76.2,0,.38,0,.58.03v2.61c-.35-.03-.7-.06-.93-.06-2.7,0-4.29,2.06-4.29,4.9v6.81h-2.35ZM112.67,380.16c-3.89,0-6.87-2.84-6.87-7.13s2.87-7.34,6.87-7.34c2.09,0,3.92.99,4.93,2.7l.06-.03v-2.49h2.35v14.12h-2.26v-2.55h-.03c-1.01,1.68-2.76,2.73-5.05,2.73ZM113.01,378.01c2.61,0,4.73-2,4.73-4.99s-1.94-5.19-4.73-5.19-4.84,2.06-4.84,5.19c0,2.84,1.94,4.99,4.84,4.99ZM128.2,380.16c-2.49,0-3.65-1.54-3.65-4.38v-7.89h-1.83v-2.03h1.83v-4.81l2.35-.26v5.08h4.67v2.03h-4.67v7.54c0,1.71.38,2.52,1.71,2.52.84,0,1.71-.35,2.41-.73l.61,2.06c-.78.46-1.74.87-3.42.87ZM146.58,372.68c0,.38-.06.78-.06.96h-11.02c.32,2.64,2.17,4.38,4.84,4.38,1.89,0,3.22-.81,4.09-1.88l1.65,1.39c-1.22,1.57-2.99,2.64-5.83,2.64-4.18,0-7.13-2.9-7.13-7.22s2.93-7.25,6.96-7.25,6.5,2.96,6.5,6.99ZM140.05,367.83c-2.26,0-4.06,1.48-4.5,3.89h8.67c-.35-2.32-1.86-3.89-4.18-3.89ZM161.37,379.98l-4.87-14.12h2.41l3.57,10.61h.06l3.25-10.61h2.03l3.31,10.61h.06l3.54-10.61h2.41l-4.87,14.12h-2.2l-3.25-10.35h-.03l-3.25,10.35h-2.15ZM181.43,363.28c-.96,0-1.71-.75-1.71-1.68s.75-1.68,1.71-1.68,1.71.75,1.71,1.68-.75,1.68-1.71,1.68ZM180.24,379.98v-14.12h2.35v14.12h-2.35ZM191.15,380.16c-2.49,0-3.65-1.54-3.65-4.38v-7.89h-1.83v-2.03h1.83v-4.81l2.35-.26v5.08h4.67v2.03h-4.67v7.54c0,1.71.38,2.52,1.71,2.52.84,0,1.71-.35,2.41-.73l.61,2.06c-.78.46-1.74.87-3.42.87ZM197.66,379.98v-21.34h2.35v9.69h.03c1.1-1.68,2.96-2.64,5.22-2.64,3.04,0,5.13,1.8,5.13,5.83v8.47h-2.35v-7.8c0-3.19-1.42-4.35-3.48-4.35-2.81,0-4.55,1.86-4.55,5.05v7.1h-2.35Z"/>
  <g>
    <g>
      <g>
        <g>
          <path class="cls-8" d="M857.7,444.47c-1.64-2.78-4.63-4.49-7.85-4.49h-28.64c-3.23,0-6.22,1.71-7.85,4.49l-14.31,24.31c-2.24,3.8-2.24,8.52,0,12.32l14.31,24.31c1.64,2.78,4.63,4.49,7.85,4.49h28.64c3.23,0,6.22-1.71,7.85-4.49l14.31-24.31c2.24-3.8,2.24-8.52,0-12.32l-14.31-24.31Z"/>
          <g>
            <path class="cls-16" d="M814.19,468c1.48-4.55,4.37-8.46,8.15-11.21h0l-2.56-3.52c-4.52,3.29-7.97,7.96-9.73,13.39l4.14,1.35h0Z"/>
            <path class="cls-19" d="M856.85,468h0l4.14-1.35c-1.76-5.43-5.21-10.1-9.73-13.39l-2.56,3.52c3.79,2.75,6.67,6.66,8.15,11.21Z"/>
            <path class="cls-16" d="M848.7,456.79h0l2.56-3.52c-4.42-3.22-9.86-5.12-15.74-5.12v4.35c4.93,0,9.48,1.59,13.18,4.29Z"/>
            <path class="cls-19" d="M813.09,474.93c0-2.42.39-4.75,1.1-6.93l-4.14-1.35c-.85,2.61-1.31,5.39-1.31,8.28s.46,5.67,1.31,8.28l4.14-1.35c-.71-2.18-1.1-4.51-1.1-6.93Z"/>
            <path class="cls-19" d="M835.52,452.5v-4.35c-5.88,0-11.32,1.9-15.74,5.12l2.56,3.52c3.7-2.69,8.25-4.29,13.18-4.29Z"/>
            <path class="cls-19" d="M856.85,481.86c-1.48,4.55-4.37,8.46-8.15,11.21l2.56,3.52c4.52-3.29,7.97-7.96,9.73-13.39l-4.14-1.35h0Z"/>
            <path class="cls-16" d="M822.34,493.07c-3.79-2.75-6.67-6.66-8.15-11.21h0l-4.14,1.35c1.76,5.43,5.21,10.1,9.73,13.39l2.56-3.52h0Z"/>
            <path class="cls-16" d="M860.99,466.65l-4.14,1.35c.71,2.18,1.1,4.51,1.1,6.93s-.39,4.75-1.1,6.93l4.14,1.35c.85-2.61,1.31-5.39,1.31-8.28s-.46-5.67-1.31-8.28Z"/>
            <path class="cls-16" d="M848.7,493.07c-3.7,2.69-8.25,4.29-13.18,4.29v4.35c5.88,0,11.32-1.9,15.74-5.12l-2.56-3.52h0Z"/>
            <path class="cls-19" d="M822.34,493.07l-2.56,3.52c4.42,3.22,9.86,5.12,15.74,5.12v-4.35c-4.93,0-9.48-1.59-13.18-4.29Z"/>
            <path class="cls-16" d="M825.36,460.95l-3.02-4.16h0c-3.78,2.75-6.67,6.66-8.15,11.21h0l4.89,1.59c1.14-3.5,3.36-6.52,6.28-8.64Z"/>
            <path class="cls-4" d="M848.7,456.79l-3.02,4.16c2.92,2.12,5.14,5.14,6.28,8.64l4.89-1.59h0c-1.48-4.55-4.37-8.46-8.15-11.21Z"/>
            <path class="cls-16" d="M845.68,460.95l3.02-4.16h0c-3.7-2.69-8.25-4.29-13.18-4.29v5.14c3.8,0,7.31,1.23,10.16,3.3Z"/>
            <path class="cls-4" d="M818.23,474.93c0-1.86.3-3.66.85-5.34l-4.89-1.59c-.71,2.18-1.1,4.51-1.1,6.93s.39,4.75,1.1,6.93l4.89-1.59c-.55-1.68-.85-3.48-.85-5.34Z"/>
            <path class="cls-4" d="M835.52,457.64v-5.14c-4.93,0-9.48,1.59-13.18,4.29l3.02,4.16c2.85-2.08,6.36-3.3,10.16-3.3Z"/>
            <path class="cls-4" d="M845.68,488.91l3.02,4.16c3.79-2.75,6.67-6.66,8.15-11.21h0l-4.89-1.59c-1.14,3.5-3.36,6.52-6.28,8.64Z"/>
            <path class="cls-16" d="M819.08,480.27l-4.89,1.59h0c1.48,4.55,4.37,8.46,8.15,11.21h0l3.02-4.16c-2.92-2.12-5.14-5.14-6.28-8.64Z"/>
            <path class="cls-16" d="M852.8,474.93c0,1.86-.3,3.66-.85,5.34l4.89,1.59c.71-2.18,1.1-4.51,1.1-6.93s-.39-4.75-1.1-6.93l-4.89,1.59c.55,1.68.85,3.48.85,5.34Z"/>
            <path class="cls-16" d="M835.52,492.22v5.14c4.93,0,9.48-1.59,13.18-4.29h0l-3.02-4.16c-2.85,2.08-6.36,3.3-10.16,3.3Z"/>
            <path class="cls-4" d="M825.36,488.91l-3.02,4.16c3.7,2.69,8.25,4.29,13.18,4.29v-5.14c-3.8,0-7.31-1.23-10.16-3.3Z"/>
          </g>
        </g>
        <path class="cls-8" d="M769.88,444.66c-1.64-2.78-4.63-4.49-7.85-4.49h-28.64c-3.23,0-6.22,1.71-7.85,4.49l-14.31,24.31c-2.24,3.8-2.24,8.52,0,12.32l14.31,24.31c1.64,2.78,4.63,4.49,7.85,4.49h28.64c3.23,0,6.22-1.71,7.85-4.49l14.31-24.31c2.24-3.8,2.24-8.52,0-12.32l-14.31-24.31Z"/>
      </g>
      <g>
        <path class="cls-9" d="M734.99,483.23h5.52l.85-3.77c1.15-.31,2.24-.76,3.26-1.35l3.27,2.06,3.91-3.91-2.06-3.27c.58-1.01,1.03-2.1,1.35-3.26l3.77-.85v-5.52l-3.77-.85c-.31-1.15-.76-2.24-1.35-3.26l2.06-3.27-3.91-3.91-3.27,2.06c-1.01-.58-2.1-1.03-3.26-1.35l-.85-3.77h-5.52l-.85,3.77c-1.15.31-2.24.76-3.26,1.35l-3.27-2.06-3.91,3.91,2.06,3.27c-.58,1.01-1.03,2.1-1.35,3.26l-3.77.85v5.52l3.77.85c.31,1.15.76,2.24,1.35,3.26l-2.06,3.27,3.91,3.91,3.27-2.06c1.01.58,2.1,1.03,3.26,1.35l.85,3.77ZM737.75,474.35c-4.54,0-8.22-3.68-8.22-8.22s3.68-8.22,8.22-8.22,8.22,3.68,8.22,8.22-3.68,8.22-8.22,8.22Z"/>
        <path class="cls-8" d="M737.75,457.91c-4.54,0-8.22,3.68-8.22,8.22s3.68,8.22,8.22,8.22,8.22-3.68,8.22-8.22-3.68-8.22-8.22-8.22ZM737.75,470.24c-2.27,0-4.11-1.84-4.11-4.11s1.84-4.11,4.11-4.11,4.11,1.84,4.11,4.11-1.84,4.11-4.11,4.11Z"/>
        <circle class="cls-15" cx="737.75" cy="466.13" r="4.11"/>
        <path class="cls-10" d="M774.45,476.28l2.3-1.59-1.49-3.71-2.76.44c-.52-.69-1.12-1.3-1.78-1.82l.5-2.75-3.68-1.57-1.64,2.26c-.84-.12-1.69-.13-2.55-.02l-1.59-2.3-3.71,1.49.44,2.76c-.69.52-1.3,1.12-1.82,1.78l-2.75-.5-1.57,3.68,2.26,1.64c-.12.84-.13,1.69-.02,2.55l-2.3,1.59,1.49,3.71,2.76-.44c.52.69,1.12,1.3,1.78,1.82l-.5,2.75,3.68,1.57,1.64-2.26c.84.12,1.69.13,2.55.02l1.59,2.3,3.71-1.49-.44-2.76c.69-.52,1.3-1.12,1.82-1.78l2.75.5,1.57-3.68-2.26-1.64c.12-.84.13-1.69.02-2.55ZM766.7,482.85c-2.99,1.2-6.38-.25-7.58-3.23-1.2-2.99.25-6.38,3.23-7.58,2.99-1.2,6.38.25,7.58,3.23,1.2,2.99-.25,6.38-3.23,7.58Z"/>
        <path class="cls-8" d="M762.35,472.04c-2.99,1.2-4.43,4.59-3.23,7.58,1.2,2.99,4.59,4.43,7.58,3.23,2.99-1.2,4.43-4.59,3.23-7.58-1.2-2.99-4.59-4.43-7.58-3.23ZM765.61,480.15c-1.49.6-3.19-.12-3.79-1.62-.6-1.49.12-3.19,1.62-3.79s3.19.12,3.79,1.62c.6,1.49-.12,3.19-1.62,3.79Z"/>
        <path class="cls-15" d="M763.44,474.74c-1.49.6-2.22,2.3-1.62,3.79.6,1.49,2.3,2.22,3.79,1.62,1.49-.6,2.22-2.3,1.62-3.79-.6-1.49-2.3-2.22-3.79-1.62Z"/>
        <path class="cls-15" d="M756.98,493.53l-.39-3.2-2.24-.23c-.26-.65-.6-1.25-1.01-1.79l.96-2.04-2.54-1.99-1.75,1.42c-.63-.27-1.29-.45-1.98-.55l-.76-2.12-3.2.39-.23,2.24c-.65.26-1.25.6-1.79,1.01l-2.04-.96-1.99,2.54,1.42,1.75c-.27.63-.45,1.29-.55,1.98l-2.12.76.39,3.2,2.24.23c.26.65.6,1.25,1.01,1.79l-.96,2.04,2.54,1.99,1.75-1.42c.63.27,1.29.45,1.98.55l.76,2.12,3.2-.39.23-2.24c.65-.26,1.25-.6,1.79-1.01l2.04.96,1.99-2.54-1.42-1.75c.27-.63.45-1.29.55-1.98l2.12-.76ZM747.46,497.89c-2.62.32-5.01-1.55-5.33-4.17-.32-2.62,1.55-5.01,4.17-5.33,2.62-.32,5.01,1.55,5.33,4.17.32,2.62-1.55,5.01-4.17,5.33Z"/>
        <path class="cls-8" d="M746.31,488.39c-2.62.32-4.49,2.71-4.17,5.33.32,2.62,2.71,4.49,5.33,4.17,2.62-.32,4.49-2.71,4.17-5.33-.32-2.62-2.71-4.49-5.33-4.17ZM747.17,495.51c-1.31.16-2.5-.77-2.66-2.09-.16-1.31.77-2.5,2.09-2.66s2.5.77,2.66,2.09c.16,1.31-.77,2.5-2.09,2.66Z"/>
        <path class="cls-15" d="M746.6,490.76c-1.31.16-2.25,1.35-2.09,2.66.16,1.31,1.35,2.25,2.66,2.09s2.25-1.35,2.09-2.66c-.16-1.31-1.35-2.25-2.66-2.09Z"/>
      </g>
    </g>
    <g>
      <path class="cls-25" d="M945.72,444.32c-1.65-2.8-4.65-4.51-7.9-4.51h-28.79c-3.25,0-6.25,1.72-7.9,4.51l-14.39,24.43c-2.25,3.82-2.25,8.56,0,12.38l14.39,24.43c1.65,2.8,4.65,4.51,7.9,4.51h28.79c3.25,0,6.25-1.72,7.9-4.51l14.39-24.43c2.25-3.82,2.25-8.56,0-12.38l-14.39-24.43Z"/>
      <g>
        <g>
          <circle class="cls-12" cx="926.45" cy="493.31" r="6.6"/>
          <g>
            <circle class="cls-9" cx="913.92" cy="489.59" r="6.6"/>
            <path class="cls-15" d="M913.93,483c.93,0,1.88.2,2.78.62,3.3,1.54,4.73,5.46,3.19,8.76-1.12,2.4-3.5,3.81-5.98,3.81-.93,0-1.88-.2-2.78-.62-3.3-1.54-4.73-5.46-3.19-8.76,1.12-2.4,3.5-3.81,5.98-3.81M913.93,480.69v2.31-2.31h0c-3.45,0-6.62,2.02-8.08,5.15-2.07,4.45-.14,9.76,4.31,11.83,1.19.55,2.45.83,3.76.83,3.45,0,6.62-2.02,8.08-5.15,2.07-4.45.14-9.76-4.31-11.83-1.19-.55-2.45-.83-3.76-.83h0Z"/>
          </g>
          <circle class="cls-21" cx="906.63" cy="475.66" r="6.6"/>
          <circle class="cls-10" cx="912.84" cy="462.34" r="6.6"/>
          <circle class="cls-13" cx="927.22" cy="459.31" r="6.6"/>
          <g>
            <path class="cls-24" d="M900.41,464.65c-6.17,13.24-.43,28.98,12.81,35.14,13.24,6.17,28.98.43,35.14-12.81,1.03-2.21.08-4.83-2.13-5.86-1.04-.48-2.15-.53-3.16-.21-1,.3-2.09.24-3.12-.24-2.21-1.03-3.16-3.65-2.13-5.86l2.19-4.7c3.42-7.35.24-16.1-7.12-19.52-11.78-5.48-26.31.81-32.48,14.05ZM917.56,490.47c-1.03,2.21-3.65,3.16-5.86,2.13s-3.16-3.65-2.13-5.86,3.65-3.16,5.86-2.13c2.21,1.03,3.16,3.65,2.13,5.86ZM910.63,477.52c-1.03,2.21-3.65,3.16-5.86,2.13-2.21-1.03-3.16-3.65-2.13-5.86s3.65-3.16,5.86-2.13,3.16,3.65,2.13,5.86ZM916.83,464.2c-1.03,2.21-3.65,3.16-5.86,2.13-2.21-1.03-3.16-3.65-2.13-5.86s3.65-3.16,5.86-2.13c2.21,1.03,3.16,3.65,2.13,5.86ZM931.21,461.17c-1.03,2.21-3.65,3.16-5.86,2.13s-3.16-3.65-2.13-5.86,3.65-3.16,5.86-2.13,3.16,3.65,2.13,5.86ZM931.23,494.88c-1.03,2.21-3.65,3.16-5.86,2.13-2.21-1.03-3.16-3.65-2.13-5.86s3.65-3.16,5.86-2.13c2.21,1.03,3.16,3.65,2.13,5.86Z"/>
            <g class="cls-30">
              <rect class="cls-3" x="905.58" y="427.18" width="27.33" height="74.73" transform="translate(597.72 -513.94) rotate(45)"/>
            </g>
          </g>
        </g>
        <g>
          <path class="cls-26" d="M958.3,443.9c-7.94,4.52-26.22,23.6-29.6,27.16-.3.32-.29.82.02,1.13l1.2,1.2,1.2,1.2c.31.31.81.32,1.13.02,3.56-3.37,22.64-21.66,27.16-29.6.41-.72-.39-1.51-1.1-1.1Z"/>
          <g class="cls-29">
            <path class="cls-2" d="M972,433.83c-15.22,9.39-49.69,47.96-56.05,55.15-.57.64-.52,1.62.11,2.21l2.43,2.27,2.43,2.27c.63.59,1.61.57,2.21-.05,6.72-6.84,42.8-43.91,51.11-59.75.75-1.43-.86-2.93-2.24-2.09Z"/>
          </g>
        </g>
        <g>
          <path class="cls-27" d="M932.32,474.67c-.55-4.69-6.88-5.92-9.09-1.75-.43.81-.76,1.81-.96,3.06-.36,2.25-1.49,3.81-2.64,4.86-.8.73-.3,2.06.78,2.07,4.88.07,12.78-.93,11.91-8.24Z"/>
          <g class="cls-31">
            <path class="cls-9" d="M918.45,476.65s4.28-1.78,7.36.83c3.07,2.61,8.74-1.41,8.74-1.41l-15.32,16.16-5.1-10.43,4.32-5.15Z"/>
          </g>
        </g>
      </g>
    </g>
  </g>
  <g>
    <path class="cls-25" d="M1033.75,444.32c-1.65-2.8-4.65-4.51-7.9-4.51h-28.79c-3.25,0-6.25,1.72-7.9,4.51l-14.39,24.43c-2.25,3.82-2.25,8.56,0,12.38l14.39,24.43c1.65,2.8,4.65,4.51,7.9,4.51h28.79c3.25,0,6.25-1.72,7.9-4.51l14.39-24.43c2.25-3.82,2.25-8.56,0-12.38l-14.39-24.43Z"/>
    <g>
      <path class="cls-22" d="M1032.08,476.34v17.73c0,.89-.72,1.61-1.61,1.61h-17.41c-.89,0-1.61-.72-1.61-1.61v-6.13h1.91c.95,1.64,2.77,2.71,4.83,2.57,2.54-.18,4.61-2.24,4.78-4.78.21-3.01-2.18-5.52-5.14-5.52-1.91,0-3.57,1.04-4.46,2.58h-1.91v-7.73h7.73v-1.91c-1.64-.95-2.71-2.77-2.57-4.83.17-2.54,2.23-4.61,4.78-4.78,3.01-.21,5.52,2.17,5.52,5.14,0,1.91-1.04,3.57-2.58,4.46v1.91h6.45c.71,0,1.29.58,1.29,1.29Z"/>
      <path class="cls-15" d="M1032.08,456.04v17.73c0,.71-.58,1.29-1.29,1.29h-6.45v-1.91c1.64-.95,2.71-2.77,2.57-4.83-.18-2.54-2.24-4.61-4.78-4.78-3.01-.21-5.52,2.18-5.52,5.14,0,1.91,1.04,3.57,2.58,4.46v1.91h-7.73v-7.73h-1.91c-.95,1.64-2.77,2.7-4.82,2.57-2.54-.17-4.61-2.23-4.79-4.77-.21-3.01,2.17-5.53,5.14-5.53,1.91,0,3.57,1.04,4.46,2.58h1.91v-6.12c0-.89.72-1.61,1.61-1.61h17.41c.89,0,1.61.72,1.61,1.61Z"/>
      <path class="cls-6" d="M999.94,465.11c.18,2.54,2.24,4.6,4.79,4.77,2.06.14,3.87-.93,4.82-2.57h1.91v7.73h-7.73v1.91c1.64.95,2.71,2.77,2.57,4.83-.17,2.54-2.23,4.61-4.78,4.78-3.01.21-5.52-2.17-5.52-5.14,0-1.91,1.04-3.57,2.58-4.46v-1.91h-6.45c-.71,0-1.29-.58-1.29-1.29v-17.73c0-.89.72-1.61,1.61-1.61h17.41c.89,0,1.61.72,1.61,1.61v6.12h-1.91c-.89-1.54-2.56-2.58-4.46-2.58-2.97,0-5.35,2.51-5.14,5.53Z"/>
      <path class="cls-15" d="M1022.98,485.73c-.17,2.54-2.23,4.61-4.78,4.78-2.06.14-3.88-.93-4.83-2.57h-1.91v6.13c0,.89-.72,1.61-1.61,1.61h-17.41c-.89,0-1.61-.72-1.61-1.61v-17.73c0-.71.58-1.29,1.29-1.29h6.45v1.91c-1.64.95-2.71,2.77-2.57,4.83.18,2.54,2.24,4.61,4.78,4.78,3.01.21,5.52-2.18,5.52-5.14,0-1.91-1.04-3.57-2.58-4.46v-1.91h7.73v7.73h1.91c.89-1.54,2.56-2.58,4.46-2.58,2.97,0,5.35,2.51,5.14,5.52Z"/>
    </g>
  </g>
</svg>