<?xml version="1.0" encoding="UTF-8"?><svg id="Laag_1" xmlns="http://www.w3.org/2000/svg" viewBox="0 0 100 100"><defs><style>.cls-1{fill:none;}.cls-1,.cls-2,.cls-3,.cls-4,.cls-5,.cls-6,.cls-7{stroke-width:0px;}.cls-2{fill:#913477;}.cls-3{fill:#985184;}.cls-4{fill:#fff;}.cls-5{fill:#fbb946;}.cls-6{fill:#00a3f3;}.cls-7{fill:#006eaa;}</style></defs><path class="cls-1" d="M36.71,62.76c0-2.28.89-4.34,2.34-5.87-1.45,1.53-2.35,3.59-2.35,5.86v6.58c0,.07.03.12.05.17-.02-.05-.04-.11-.04-.17v-6.57Z"/><path class="cls-3" d="M50.75,70.81h-12.56c-.43,0-.8-.2-1.06-.5-.08-.09-.16-.17-.21-.28-.08-.16-.14-.33-.16-.51,0,0,0,0,0-.01-.02-.05-.05-.11-.05-.17v-6.58c0-2.27.9-4.33,2.35-5.86,1.56-1.64,3.75-2.67,6.2-2.67h15.49c1.12-2.39,2.18-4.93,3.17-7.61H25.76c-.96,0-1.86-.29-2.6-.79-.69-.46-1.23-1.12-1.59-1.87-.29-.6-.46-1.27-.46-1.98v-6.02s0,0,0,0h0s.01-.06.02-.09c.05-.3.29-.53.58-.53h44.59c.34,0,.68.04,1,.11,2.14-8.83,3.35-18.89,2.95-30.25,0-.25,0-.49-.02-.74H21.88c-4.77,0-8.63,3.87-8.63,8.63v67.2c0,2.1,1.74,3.82,3.85,3.82h21.12c2.03-1.63,7.05-6,12.54-13.28ZM21.11,21.8c0-.41.07-.8.17-1.17.48-1.85,2.06-3.23,4.01-3.43.16-.02.31-.05.47-.05h35.89c.09,0,.17.02.24.05.23.09.38.32.38.57v6.02c0,1.41-.64,2.66-1.63,3.51-.82.7-1.86,1.15-3.03,1.15H21.72c-.32,0-.6-.28-.6-.6v-6.04Z"/><path class="cls-1" d="M37.13,70.31c-.08-.09-.16-.17-.21-.28.05.11.14.19.21.28Z"/><path class="cls-1" d="M80.43,86.87c.24-.41.62-.67,1.07-.78-.46.11-.84.37-1.07.78Z"/><path class="cls-1" d="M71.75,100s.03-.01.05-.01c-.06,0-.12,0-.18,0,.04,0,.08.02.12.02Z"/><path class="cls-4" d="M25.77,46.61c-.97,0-1.86-.29-2.6-.79.74.5,1.64.79,2.6.79h38.15s0,0,0,0H25.77Z"/><path class="cls-4" d="M21.11,35.94s0,0,0,0v6.02c0,.71.17,1.38.46,1.98-.29-.6-.46-1.27-.46-1.99v-6.02Z"/><path class="cls-4" d="M21.71,35.32h44.59c.34,0,.68.04,1,.11,0,0,0,0,0,0-.32-.07-.66-.11-1-.11H21.72c-.29,0-.54.23-.58.53.05-.3.29-.53.58-.53Z"/><path class="cls-6" d="M60.74,54.23h-15.49c-2.44,0-4.64,1.03-6.19,2.67-1.45,1.53-2.34,3.59-2.34,5.87v6.57c0,.06.02.13.04.17,0,0,0,0,0,.01.02.19.08.36.16.51.05.11.14.19.21.28.26.3.63.5,1.07.5h21.17l-.21-1.13v-.05l-.02-.05-.42-2.41-.02-.14v-.05l-.25-1.27c-.21-1.04-.12-1.9-.09-2.27l.02-.07v-.09l.02-.07c.25-1.78,1.13-3.33,2.38-4.44,1.25-1.11,2.92-1.78,4.67-1.78,1.25,0,2.48.32,3.56.97l7.06,4,.02.02h.02l2.68,1.57v-9.34h-18.07Z"/><path class="cls-6" d="M38.19,70.81c-.43,0-.8-.2-1.07-.5.26.3.63.5,1.06.5h12.56s0,0,0,0h-12.56Z"/><path class="cls-6" d="M45.25,54.23h15.49s0,0,0,0h-15.49c-2.44,0-4.64,1.03-6.2,2.67,1.56-1.64,3.75-2.67,6.19-2.67Z"/><path class="cls-6" d="M36.75,69.5s0,0,0,.01c.02.19.08.36.16.51-.08-.16-.14-.33-.16-.51,0,0,0,0,0-.01Z"/><path class="cls-4" d="M25.76,17.15c-.16,0-.31.03-.47.05.16-.02.31-.05.47-.05h0Z"/><path class="cls-4" d="M21.72,28.44h35.91c1.16,0,2.21-.44,3.03-1.15-.82.7-1.86,1.14-3.02,1.14H21.71c-.32,0-.6-.28-.6-.6v-6.04c0-.41.07-.8.17-1.17-.1.38-.17.77-.17,1.17v6.04c0,.32.28.6.6.6Z"/><path class="cls-4" d="M61.66,17.15h0c.09,0,.17.02.25.05-.07-.03-.16-.05-.24-.05Z"/><path class="cls-2" d="M65.45,62.52c-.23,0-.45.07-.65.17.2-.1.42-.17.66-.17,0,0,0,0,0,0Z"/><path class="cls-1" d="M21.57,43.94c.36.76.9,1.41,1.59,1.87-.69-.47-1.23-1.12-1.59-1.87Z"/><path class="cls-1" d="M21.11,35.94h0s.01-.06.02-.09c0,.03-.02.06-.02.09Z"/><path class="cls-1" d="M70.96,39.97v6.02c0,.09-.02.18-.06.26.04-.08.06-.16.06-.26v-6.02c0-2.22-1.54-4.05-3.61-4.53,2.07.47,3.61,2.32,3.61,4.53Z"/><path class="cls-4" d="M63.91,46.61h6.43c.25,0,.46-.15.56-.37.04-.08.06-.17.06-.26v-6.02c0-2.21-1.55-4.05-3.61-4.53-.01,0-.03,0-.04-.01-.32-.07-.66-.11-1-.11H21.71c-.29,0-.53.23-.58.53,0,.03-.02.06-.02.09v6.02c0,.71.17,1.38.46,1.99.36.76.9,1.41,1.59,1.87.74.5,1.64.79,2.6.79h38.14Z"/><path class="cls-1" d="M25.3,17.2c-1.95.2-3.53,1.58-4.01,3.43.48-1.85,2.07-3.23,4.01-3.43Z"/><path class="cls-1" d="M62.28,17.77v6.02c0,1.41-.64,2.65-1.63,3.51.99-.85,1.63-2.1,1.63-3.51v-6.02c0-.26-.16-.48-.38-.57.22.09.38.32.38.58Z"/><path class="cls-4" d="M21.11,27.84c0,.32.28.6.6.6h35.92c1.16,0,2.21-.44,3.02-1.14.99-.85,1.63-2.1,1.63-3.51v-6.02c0-.26-.16-.48-.38-.58-.08-.03-.16-.05-.25-.05H25.77c-.16,0-.31.03-.47.05-1.95.2-3.53,1.58-4.01,3.43-.1.38-.17.77-.17,1.17v6.04Z"/><path class="cls-5" d="M50.75,70.81c-5.49,7.28-10.51,11.66-12.54,13.28h23.6l-.32-1.74-1.7-9.18-.43-2.37h0,0s-8.61,0-8.61,0Z"/><path class="cls-5" d="M67.31,35.43s.03,0,.04.01c2.07.47,3.61,2.31,3.61,4.53v6.02c0,.09-.02.18-.06.26-.1.22-.31.37-.57.37h-6.42c-.99,2.68-2.05,5.23-3.17,7.61h18.07V8.29c0-2.13-1.72-3.85-3.85-3.85h-4.72c0,.25,0,.49.02.74.39,11.36-.82,21.41-2.95,30.25Z"/><path class="cls-5" d="M67.35,35.44s-.03,0-.04-.01c0,0,0,0,0,0,.01,0,.03,0,.04.01Z"/><path class="cls-5" d="M70.9,46.24c-.1.21-.31.37-.56.37h-6.43s0,0,0,0h6.42c.25,0,.47-.15.57-.37Z"/><polygon class="cls-5" points="50.75 70.81 59.36 70.81 59.36 70.81 50.76 70.81 50.75 70.81"/><polygon class="cls-5" points="78.8 54.23 78.8 54.22 60.74 54.22 60.74 54.23 78.8 54.23"/><path class="cls-7" d="M78.8,54.23v9.34l1.97,1.13,10.67,6.11h.02c4.72,0,8.54-3.81,8.54-8.53v-6.6c0-.81-.65-1.46-1.46-1.46h-19.74s0,0,0,0h0Z"/><rect class="cls-7" x="78.8" y="54.22" width="0" height="0"/><path class="cls-6" d="M64.16,66.17l.43,2.47.41,2.17.25,1.34,1.69,9.21.51,2.74,2.69,14.49c.04.21.11.4.2.56.03.05.07.1.11.15.07.1.15.2.24.28.05.04.11.08.16.12.09.06.18.12.28.16.06.03.13.05.19.07.1.03.21.04.31.05.06,0,.12,0,.18,0,.23,0,.45-.06.66-.17.04-.02.07-.05.11-.07.21-.13.41-.3.56-.55l7.3-12.32c.24-.41.62-.67,1.07-.78l14.14-2.96.07-.03c.78-.14,1.24-.79,1.31-1.49v-.07c.04-.6-.2-1.27-.83-1.65l-15.88-9.09-1.51-.86-.78-.45-4.67-2.71-7.11-4.04c-.26-.16-.52-.23-.78-.23-.23,0-.45.07-.66.17-.06.03-.11.07-.16.1-.14.09-.27.21-.38.34-.04.05-.09.1-.12.16-.13.2-.23.43-.26.68v.07c-.03.17-.05.36,0,.54l.26,1.38.04.21Z"/></svg>