<?xml version="1.0" encoding="utf-8"?>
<!-- Generator: Adobe Illustrator 28.1.0, SVG Export Plug-In . SVG Version: 6.00 Build 0)  -->
<svg version="1.1" id="Laag_1" xmlns="http://www.w3.org/2000/svg" xmlns:xlink="http://www.w3.org/1999/xlink" x="0px" y="0px"
	 viewBox="0 0 100 100" style="enable-background:new 0 0 100 100;" xml:space="preserve">
<style type="text/css">
	.st0{fill:none;}
	.st1{fill:#985184;}
	.st2{fill:#FFFFFF;}
	.st3{fill:#00A3F3;}
	.st4{fill:#913477;}
	.st5{fill:#FBB945;}
	.st6{fill:#FBB946;}
	.st7{fill:#006EAA;}
</style>
<path class="st0" d="M36.7,62.8c0-2.3,0.9-4.3,2.3-5.9C37.6,58.4,36.7,60.5,36.7,62.8l0,6.6c0,0.1,0,0.1,0,0.2c0-0.1,0-0.1,0-0.2
	C36.7,69.3,36.7,62.8,36.7,62.8z"/>
<path class="st1" d="M50.8,70.8H38.2c-0.4,0-0.8-0.2-1.1-0.5C37,70.2,37,70.1,36.9,70c-0.1-0.2-0.1-0.3-0.2-0.5c0,0,0,0,0,0
	c0-0.1,0-0.1,0-0.2v-6.6c0-2.3,0.9-4.3,2.3-5.9c1.6-1.6,3.8-2.7,6.2-2.7h15.5c1.1-2.4,2.2-4.9,3.2-7.6H25.8c-1,0-1.9-0.3-2.6-0.8
	c-0.7-0.5-1.2-1.1-1.6-1.9c-0.3-0.6-0.5-1.3-0.5-2v-6l0,0l0,0c0,0,0-0.1,0-0.1c0-0.3,0.3-0.5,0.6-0.5h44.6c0.3,0,0.7,0,1,0.1
	c2.1-8.8,3.3-18.9,2.9-30.2c0-0.2,0-0.5,0-0.7H21.9c-4.8,0-8.6,3.9-8.6,8.6v67.2c0,2.1,1.7,3.8,3.8,3.8h21.1
	C40.2,82.5,45.3,78.1,50.8,70.8L50.8,70.8z M21.1,21.8c0-0.4,0.1-0.8,0.2-1.2c0.5-1.9,2.1-3.2,4-3.4c0.2,0,0.3,0,0.5,0h35.9
	c0.1,0,0.2,0,0.2,0c0.2,0.1,0.4,0.3,0.4,0.6v6c0,1.4-0.6,2.7-1.6,3.5c-0.8,0.7-1.9,1.1-3,1.1H21.7c-0.3,0-0.6-0.3-0.6-0.6L21.1,21.8
	L21.1,21.8z"/>
<path class="st0" d="M37.1,70.3C37,70.2,37,70.1,36.9,70C37,70.1,37.1,70.2,37.1,70.3z"/>
<path class="st0" d="M80.4,86.9c0.2-0.4,0.6-0.7,1.1-0.8C81,86.2,80.7,86.5,80.4,86.9z"/>
<path class="st0" d="M71.8,100C71.8,100,71.8,100,71.8,100c0,0-0.1,0-0.1,0C71.7,100,71.7,100,71.8,100L71.8,100z"/>
<path class="st2" d="M25.8,46.6c-1,0-1.9-0.3-2.6-0.8C23.9,46.3,24.8,46.6,25.8,46.6h38.2l0,0H25.8z"/>
<path class="st2" d="M21.1,35.9L21.1,35.9v6c0,0.7,0.2,1.4,0.5,2c-0.3-0.6-0.5-1.3-0.5-2V35.9L21.1,35.9z"/>
<path class="st2" d="M21.7,35.3h44.6c0.3,0,0.7,0,1,0.1l0,0c-0.3-0.1-0.7-0.1-1-0.1H21.7c-0.3,0-0.5,0.2-0.6,0.5
	C21.2,35.5,21.4,35.3,21.7,35.3L21.7,35.3z"/>
<path class="st3" d="M60.7,54.2H45.2c-2.4,0-4.6,1-6.2,2.7c-1.5,1.5-2.3,3.6-2.3,5.9v6.6c0,0.1,0,0.1,0,0.2c0,0,0,0,0,0
	c0,0.2,0.1,0.4,0.2,0.5c0,0.1,0.1,0.2,0.2,0.3c0.3,0.3,0.6,0.5,1.1,0.5h21.2l-0.2-1.1v-0.1l0-0.1l-0.4-2.4l0-0.1V67l-0.2-1.3
	c-0.2-1-0.1-1.9-0.1-2.3l0-0.1v-0.1l0-0.1c0.2-1.8,1.1-3.3,2.4-4.4c1.2-1.1,2.9-1.8,4.7-1.8c1.2,0,2.5,0.3,3.6,1l7.1,4l0,0h0
	l2.7,1.6v-9.3L60.7,54.2L60.7,54.2z"/>
<path class="st3" d="M38.2,70.8c-0.4,0-0.8-0.2-1.1-0.5C37.4,70.6,37.8,70.8,38.2,70.8h12.6l0,0H38.2L38.2,70.8z"/>
<path class="st3" d="M45.2,54.2h15.5l0,0H45.2c-2.4,0-4.6,1-6.2,2.7C40.6,55.3,42.8,54.2,45.2,54.2L45.2,54.2z"/>
<path class="st3" d="M36.8,69.5C36.8,69.5,36.8,69.5,36.8,69.5c0,0.2,0.1,0.4,0.2,0.5C36.8,69.9,36.8,69.7,36.8,69.5
	C36.8,69.5,36.8,69.5,36.8,69.5z"/>
<path class="st2" d="M25.8,17.1c-0.2,0-0.3,0-0.5,0C25.5,17.2,25.6,17.1,25.8,17.1L25.8,17.1z"/>
<path class="st2" d="M21.7,28.4h35.9c1.2,0,2.2-0.4,3-1.1c-0.8,0.7-1.9,1.1-3,1.1L21.7,28.4c-0.3,0-0.6-0.3-0.6-0.6v-6
	c0-0.4,0.1-0.8,0.2-1.2c-0.1,0.4-0.2,0.8-0.2,1.2v6C21.1,28.2,21.4,28.4,21.7,28.4L21.7,28.4z"/>
<path class="st2" d="M61.7,17.1L61.7,17.1c0.1,0,0.2,0,0.2,0C61.8,17.2,61.8,17.1,61.7,17.1L61.7,17.1z"/>
<path class="st4" d="M65.4,62.5c-0.2,0-0.4,0.1-0.7,0.2C65,62.6,65.2,62.5,65.4,62.5L65.4,62.5L65.4,62.5z"/>
<path class="st0" d="M21.6,43.9c0.4,0.8,0.9,1.4,1.6,1.9C22.5,45.3,21.9,44.7,21.6,43.9z"/>
<path class="st0" d="M21.1,35.9L21.1,35.9C21.1,35.9,21.1,35.9,21.1,35.9C21.1,35.9,21.1,35.9,21.1,35.9z"/>
<path class="st0" d="M71,40v6c0,0.1,0,0.2-0.1,0.3c0-0.1,0.1-0.2,0.1-0.3V40c0-2.2-1.5-4-3.6-4.5C69.4,35.9,71,37.8,71,40z"/>
<path class="st2" d="M63.9,46.6h6.4c0.2,0,0.5-0.2,0.6-0.4c0-0.1,0.1-0.2,0.1-0.3v-6c0-2.2-1.6-4-3.6-4.5c0,0,0,0,0,0
	c-0.3-0.1-0.7-0.1-1-0.1H21.7c-0.3,0-0.5,0.2-0.6,0.5c0,0,0,0.1,0,0.1v6c0,0.7,0.2,1.4,0.5,2c0.4,0.8,0.9,1.4,1.6,1.9
	c0.7,0.5,1.6,0.8,2.6,0.8L63.9,46.6L63.9,46.6z"/>
<path class="st0" d="M25.3,17.2c-2,0.2-3.5,1.6-4,3.4C21.8,18.8,23.4,17.4,25.3,17.2z"/>
<path class="st0" d="M62.3,17.8v6c0,1.4-0.6,2.6-1.6,3.5c1-0.9,1.6-2.1,1.6-3.5V17.8c0-0.3-0.2-0.5-0.4-0.6
	C62.1,17.3,62.3,17.5,62.3,17.8L62.3,17.8z"/>
<path class="st2" d="M21.1,27.8c0,0.3,0.3,0.6,0.6,0.6h35.9c1.2,0,2.2-0.4,3-1.1c1-0.9,1.6-2.1,1.6-3.5v-6c0-0.3-0.2-0.5-0.4-0.6
	c-0.1,0-0.2,0-0.2,0H25.8c-0.2,0-0.3,0-0.5,0c-2,0.2-3.5,1.6-4,3.4c-0.1,0.4-0.2,0.8-0.2,1.2L21.1,27.8L21.1,27.8z"/>
<path class="st5" d="M50.8,70.8c-5.5,7.3-10.5,11.7-12.5,13.3h23.6l-0.3-1.7l-1.7-9.2l-0.4-2.4l0,0l0,0L50.8,70.8L50.8,70.8z"/>
<path class="st5" d="M67.3,35.4C67.3,35.4,67.3,35.4,67.3,35.4c2.1,0.5,3.7,2.3,3.7,4.5v6c0,0.1,0,0.2-0.1,0.3
	c-0.1,0.2-0.3,0.4-0.6,0.4h-6.4c-1,2.7-2,5.2-3.2,7.6h18.1V8.3c0-2.1-1.7-3.8-3.8-3.8h-4.7c0,0.2,0,0.5,0,0.7
	C70.7,16.5,69.4,26.6,67.3,35.4z"/>
<path class="st6" d="M67.3,35.4C67.3,35.4,67.3,35.4,67.3,35.4L67.3,35.4C67.3,35.4,67.3,35.4,67.3,35.4z"/>
<path class="st6" d="M70.9,46.2c-0.1,0.2-0.3,0.4-0.6,0.4h-6.4l0,0h6.4C70.6,46.6,70.8,46.5,70.9,46.2z"/>
<polygon class="st6" points="50.8,70.8 59.4,70.8 59.4,70.8 50.8,70.8 "/>
<polygon class="st6" points="78.8,54.2 78.8,54.2 60.7,54.2 60.7,54.2 "/>
<path class="st7" d="M78.8,54.2v9.3l2,1.1l10.7,6.1h0c4.7,0,8.5-3.8,8.5-8.5v-6.6c0-0.8-0.7-1.5-1.5-1.5L78.8,54.2L78.8,54.2
	L78.8,54.2L78.8,54.2z"/>
<polygon class="st7" points="78.8,54.2 78.8,54.2 78.8,54.2 "/>
<path class="st3" d="M64.2,66.2l0.4,2.5l0.4,2.2l0.2,1.3l1.7,9.2l0.5,2.7l2.7,14.5c0,0.2,0.1,0.4,0.2,0.6c0,0.1,0.1,0.1,0.1,0.2
	c0.1,0.1,0.2,0.2,0.2,0.3c0.1,0,0.1,0.1,0.2,0.1c0.1,0.1,0.2,0.1,0.3,0.2c0.1,0,0.1,0.1,0.2,0.1c0.1,0,0.2,0,0.3,0.1
	c0.1,0,0.1,0,0.2,0c0.2,0,0.4-0.1,0.7-0.2c0,0,0.1-0.1,0.1-0.1c0.2-0.1,0.4-0.3,0.6-0.6l7.3-12.3c0.2-0.4,0.6-0.7,1.1-0.8l14.1-3
	l0.1,0c0.8-0.1,1.2-0.8,1.3-1.5v-0.1c0-0.6-0.2-1.3-0.8-1.7l-15.9-9.1l-1.5-0.9L78,69.5l-4.7-2.7l-7.1-4c-0.3-0.2-0.5-0.2-0.8-0.2
	c-0.2,0-0.4,0.1-0.7,0.2c-0.1,0-0.1,0.1-0.2,0.1c-0.1,0.1-0.3,0.2-0.4,0.3c0,0-0.1,0.1-0.1,0.2c-0.1,0.2-0.2,0.4-0.3,0.7V64
	c0,0.2,0,0.4,0,0.5l0.3,1.4L64.2,66.2L64.2,66.2z"/>
</svg>
