<?xml version="1.0" encoding="utf-8"?>
<!-- Generator: Adobe Illustrator 28.1.0, SVG Export Plug-In . SVG Version: 6.00 Build 0)  -->
<svg version="1.1" id="Laag_1" xmlns="http://www.w3.org/2000/svg" xmlns:xlink="http://www.w3.org/1999/xlink" x="0px" y="0px"
	 viewBox="0 0 100 100" style="enable-background:new 0 0 100 100;" xml:space="preserve">
<style type="text/css">
	.st0{fill:none;}
	.st1{fill:#FFFFFF;}
	.st2{fill:#00A3F3;}
	.st3{fill:#AA4689;}
	.st4{fill:#913477;}
	.st5{fill:#006EAA;}
	.st6{fill:none;stroke:#FFFFFF;stroke-width:0;stroke-linecap:round;stroke-linejoin:round;}
</style>
<g>
	<g>
		<path class="st0" d="M75.8,86.8c0.2-0.4,0.6-0.6,1-0.8C76.4,86.1,76.1,86.4,75.8,86.8z"/>
		<path class="st0" d="M67.4,99.5C67.4,99.5,67.5,99.4,67.4,99.5c0,0-0.1,0-0.1,0C67.4,99.4,67.4,99.5,67.4,99.5z"/>
		<path class="st1" d="M66.7,41.4v5.8c0,0.3-0.3,0.6-0.6,0.6H23c-2.5,0-4.5-2-4.5-4.5v-5.8c0-0.3,0.3-0.6,0.6-0.6h43.1
			C64.7,36.9,66.7,38.9,66.7,41.4z"/>
		<path class="st2" d="M74.3,55.2v9l-2.6-1.5h0l0,0l-6.8-3.9c-1.1-0.6-2.2-0.9-3.4-0.9c-1.7,0-3.3,0.6-4.5,1.7
			c-1.2,1.1-2.1,2.6-2.3,4.3l0,0.1V64l0,0.1c0,0.4-0.1,1.2,0.1,2.2l0.2,1.2v0l0,0.1l0.4,2.3l0,0v0l0.2,1.1H35
			c-0.7,0-1.3-0.5-1.4-1.3c0,0,0-0.1,0-0.2v-6.4c0-4.6,3.7-8.3,8.3-8.3H74.3z"/>
		<path class="st3" d="M18.5,23.8v5.8c0,0.3,0.3,0.6,0.6,0.6h31.9c-0.4,2.2-0.9,4.5-1.4,6.6H19c-0.3,0-0.6,0.3-0.6,0.6v5.8
			c0,2.5,2,4.5,4.5,4.5H46c-1,2.5-2,4.9-3.2,7.4h-1c-4.6,0-8.3,3.7-8.3,8.3v6.4c0,0.1,0,0.1,0,0.2c-4,5.2-8.5,9.9-13.4,14.1h-5.6
			c-2,0-3.7-1.7-3.7-3.7v-65c0-4.6,3.7-8.3,8.3-8.3h32.9c0.3,4.1,0.3,8.2,0.1,12.3H23C20.5,19.3,18.5,21.3,18.5,23.8z"/>
		<g>
			<path class="st1" d="M58.3,19.9v5.8c0,2.5-2,4.5-4.5,4.5H19c-0.3,0-0.6-0.3-0.6-0.6v-5.8c0-2.5,2-4.5,4.5-4.5h34.7
				C58,19.3,58.3,19.6,58.3,19.9z"/>
		</g>
		<g>
			<path class="st4" d="M74.3,10.8v44.4H42.8c1.2-2.4,2.3-4.9,3.2-7.4h20c0.3,0,0.6-0.3,0.6-0.6v-5.8c0-2.5-2-4.5-4.5-4.5H49.5
				c0.5-2.2,1-4.4,1.4-6.6h2.8c2.5,0,4.5-2,4.5-4.5v-5.8c0-0.3-0.3-0.6-0.6-0.6h-5.5c0.2-4.1,0.2-8.2-0.1-12.3h18.5
				C72.6,7,74.3,8.7,74.3,10.8z"/>
		</g>
		<g>
			<path class="st4" d="M61.3,63.2c-0.2,0-0.4,0.1-0.6,0.2C60.9,63.3,61.1,63.2,61.3,63.2C61.3,63.2,61.3,63.2,61.3,63.2z"/>
		</g>
		<g>
			<path class="st4" d="M57.8,84.1H20.2c5-4.2,9.5-8.9,13.4-14.1c0.1,0.7,0.7,1.3,1.4,1.3h20.5l0.4,2.3l1.6,8.9L57.8,84.1z"/>
		</g>
		<path class="st5" d="M99.8,56.6V63c0,4.6-3.7,8.3-8.3,8.3h-5l-10.3-5.9l-1.9-1.1v-9h24.1C99.1,55.2,99.8,55.8,99.8,56.6z"/>
		<path class="st2" d="M73.5,70L69,67.3l-6.9-3.9c-0.2-0.2-0.5-0.2-0.8-0.2c-0.2,0-0.4,0.1-0.6,0.2c-0.1,0-0.1,0.1-0.2,0.1
			c-0.1,0.1-0.3,0.2-0.4,0.3c0,0.1-0.1,0.1-0.1,0.2c-0.1,0.2-0.2,0.4-0.3,0.7l0,0.1c0,0.2,0,0.4,0,0.5l0.3,1.3l0,0.2l0.4,2.4
			l0.4,2.1l0.2,1.3l1.6,8.9l0.5,2.6l2.6,14c0,0.2,0.1,0.4,0.2,0.5c0,0.1,0.1,0.1,0.1,0.1c0.1,0.1,0.1,0.2,0.2,0.3
			c0,0,0.1,0.1,0.2,0.1c0.1,0.1,0.2,0.1,0.3,0.2c0.1,0,0.1,0,0.2,0.1c0.1,0,0.2,0,0.3,0.1c0.1,0,0.1,0,0.2,0c0.2,0,0.4-0.1,0.6-0.2
			c0,0,0.1,0,0.1-0.1c0.2-0.1,0.4-0.3,0.5-0.5l7.1-11.9c0.2-0.4,0.6-0.6,1-0.8l13.7-2.9l0.1,0c0.8-0.1,1.2-0.8,1.3-1.4l0-0.1
			c0-0.6-0.2-1.2-0.8-1.6l-15.4-8.8l-1.5-0.8L73.5,70z"/>
		<path class="st6" d="M68.1,99.3c-0.2,0.1-0.4,0.2-0.6,0.2"/>
		<path class="st6" d="M68.8,98.7c-0.1,0.2-0.3,0.4-0.5,0.5"/>
		<path class="st6" d="M67.3,99.4c-0.1,0-0.2,0-0.3-0.1"/>
		<path class="st6" d="M66.8,99.3c-0.1,0-0.2-0.1-0.3-0.2"/>
		<path class="st6" d="M66.1,98.7c-0.1-0.2-0.2-0.3-0.2-0.5"/>
		<path class="st6" d="M66.4,99.1c-0.1-0.1-0.2-0.2-0.2-0.3"/>
		<path class="st6" d="M62.1,63.4c-0.2-0.2-0.5-0.2-0.8-0.2"/>
		<path class="st6" d="M60.5,63.5c0.1,0,0.1-0.1,0.2-0.1"/>
		<path class="st6" d="M60.1,64c0-0.1,0.1-0.1,0.1-0.2"/>
	</g>
</g>
</svg>
